<?xml version="1.0" standalone="no"?>
<!DOCTYPE svg PUBLIC "-//W3C//DTD SVG 20010904//EN"
 "http://www.w3.org/TR/2001/REC-SVG-20010904/DTD/svg10.dtd">
<svg version="1.0" xmlns="http://www.w3.org/2000/svg"
 width="512.000000pt" height="512.000000pt" viewBox="0 0 512.000000 512.000000"
 preserveAspectRatio="xMidYMid meet">

<g transform="translate(0.000000,512.000000) scale(0.100000,-0.100000)"
fill="#000000" stroke="none">
<path d="M701 2390 c-357 -49 -504 -484 -250 -739 212 -211 569 -152 696 114
43 91 56 193 51 415 -4 229 13 214 -241 217 -105 0 -221 -3 -256 -7z"/>
<path d="M1835 2376 c-162 -53 -276 -178 -305 -335 -13 -72 -13 -1290 0 -1362
24 -127 119 -253 235 -310 273 -134 585 36 625 341 12 97 12 1202 0 1299 -20
151 -108 274 -244 341 -64 32 -79 35 -170 37 -64 2 -116 -2 -141 -11z"/>
</g>
</svg>
