<?xml version="1.0" encoding="UTF-8"?>
<svg width="64px" height="64px" viewBox="0 0 64 64" version="1.1" xmlns="http://www.w3.org/2000/svg" xmlns:xlink="http://www.w3.org/1999/xlink">
    <title>abc-button</title>
    <g id="abc-button" stroke="none" stroke-width="1" fill="none" fill-rule="evenodd">
        <path d="M32,64 C14.3,64 0,49.7 0,32 C0,14.3 14.3,0 32,0 C49.7,0 64,14.3 64,32 C64,49.7 49.7,64 32,64 Z M31.9,43.8 C41,43.8 48.3,37.9 48.3,30.5 C48.3,23.1 41,17.2 31.9,17.2 C22.8,17.2 15.5,23.1 15.5,30.5 C15.5,35 18.2,38.9 22.5,41.3 C22.5,41.3 22.5,41.3 22.6,41.4 C22.7,41.4 22.7,41.5 22.7,41.5 C23.1,43.2 20.7,44.8 19.1,45.8 C24.3,46.1 27,44 27.7,43.3 C29,43.7 30.6,43.8 31.9,43.8 Z" id="Shape" fill="#EFEFF4" fill-rule="nonzero"></path>
        <path d="M31.9,43.8 C41,43.8 48.3,37.9 48.3,30.5 C48.3,23.1 41,17.2 31.9,17.2 C22.8,17.2 15.5,23.1 15.5,30.5 C15.5,35 18.2,38.9 22.5,41.3 C22.5,41.3 22.5,41.3 22.6,41.4 L22.6,41.4 C22.7,41.4 22.7,41.5 22.7,41.5 L22.7,41.5 C23.1,43.2 20.7,44.8 19.1,45.8 C24.3,46.1 27,44 27.7,43.3 C29,43.7 30.6,43.8 31.9,43.8 Z" id="Path" fill="#007AFF"></path>
    </g>
</svg>