<?xml version="1.0" encoding="UTF-8" standalone="no"?>
<!-- Created with Inkscape (http://www.inkscape.org/) -->

<svg
   xmlns:dc="http://purl.org/dc/elements/1.1/"
   xmlns:cc="http://creativecommons.org/ns#"
   xmlns:rdf="http://www.w3.org/1999/02/22-rdf-syntax-ns#"
   xmlns:svg="http://www.w3.org/2000/svg"
   xmlns="http://www.w3.org/2000/svg"
   xmlns:sodipodi="http://sodipodi.sourceforge.net/DTD/sodipodi-0.dtd"
   xmlns:inkscape="http://www.inkscape.org/namespaces/inkscape"
   width="79.574997mm"
   height="39.792416mm"
   viewBox="0 0 79.574997 39.792416"
   version="1.1"
   id="svg8"
   inkscape:version="0.92.2 (5c3e80d, 2017-08-06)"
   sodipodi:docname="Kik Messenger logo.svg">
  <title
     id="title893">Kik Messenger logo</title>
  <defs
     id="defs2" />
  <sodipodi:namedview
     id="base"
     pagecolor="#ffffff"
     bordercolor="#666666"
     borderopacity="1.0"
     inkscape:pageopacity="0.0"
     inkscape:pageshadow="2"
     inkscape:zoom="1.4142136"
     inkscape:cx="56.101633"
     inkscape:cy="33.95813"
     inkscape:document-units="px"
     inkscape:current-layer="layer1"
     showgrid="false"
     inkscape:snap-object-midpoints="true"
     inkscape:snap-intersection-paths="true"
     units="mm"
     fit-margin-top="0.1"
     fit-margin-left="0.1"
     fit-margin-right="0.1"
     fit-margin-bottom="0.1"
     inkscape:window-width="1366"
     inkscape:window-height="705"
     inkscape:window-x="-8"
     inkscape:window-y="-8"
     inkscape:window-maximized="1" />
  <metadata
     id="metadata5">
    <rdf:RDF>
      <cc:Work
         rdf:about="">
        <dc:format>image/svg+xml</dc:format>
        <dc:type
           rdf:resource="http://purl.org/dc/dcmitype/StillImage" />
        <dc:title>Kik Messenger logo</dc:title>
        <dc:date>02/04/2018</dc:date>
        <dc:creator>
          <cc:Agent>
            <dc:title>Kik Interactive</dc:title>
          </cc:Agent>
        </dc:creator>
        <dc:source>https://vignette.wikia.nocookie.net/logopedia/images/1/11/Kik_Messenger_Logo.png/revision/latest?cb=20170815050632</dc:source>
        <dc:publisher>
          <cc:Agent>
            <dc:title>CMetalCore</dc:title>
          </cc:Agent>
        </dc:publisher>
      </cc:Work>
    </rdf:RDF>
  </metadata>
  <g
     inkscape:label="Capa 1"
     inkscape:groupmode="layer"
     id="layer1"
     transform="translate(153.68855,-13.049241)">
    <g
       id="g891"
       transform="matrix(0.53597385,0,0,0.53597385,-44.04163,-35.795617)"
       style="fill:#5dcd11;fill-opacity:1">
      <circle
         r="8.5860329"
         cy="134.93446"
         cx="-64.879677"
         id="path834"
         style="opacity:1;fill:#5dcd11;fill-opacity:1;stroke:none;stroke-width:1.47821546;stroke-linecap:square;stroke-linejoin:miter;stroke-miterlimit:4;stroke-dasharray:none;stroke-dashoffset:0;stroke-opacity:1;paint-order:markers stroke fill" />
      <path
         id="circle836"
         transform="scale(0.26458333)"
         d="m -744.14648,345.14453 a 28.346457,28.346457 0 0 0 -28.34571,28.34766 v 222.5 a 28.346457,28.346457 0 0 0 28.34571,28.3457 28.346457,28.346457 0 0 0 28.34765,-28.3457 v -33.09571 l 17.73242,-16.94336 49.28516,66.85743 a 28.346457,28.346457 0 0 1 0,0.002 28.346457,28.346457 0 0 0 39.63672,5.99609 28.346457,28.346457 0 0 0 5.99609,-39.63671 l -53.5957,-72.70313 37.14844,-35.49609 a 28.346457,28.346457 0 0 0 0.91211,-40.07813 28.346457,28.346457 0 0 0 -40.07813,-0.91015 l -57.03711,54.49804 V 373.49219 a 28.346457,28.346457 0 0 0 -28.34765,-28.34766 z"
         style="opacity:1;fill:#5dcd11;fill-opacity:1;stroke:none;stroke-width:4.88027143;stroke-linecap:square;stroke-linejoin:miter;stroke-miterlimit:4;stroke-dasharray:none;stroke-dashoffset:0;stroke-opacity:1;paint-order:markers stroke fill"
         inkscape:connector-curvature="0" />
      <path
         id="circle854"
         transform="scale(0.26458333)"
         d="m -534.09766,421.22266 a 28.346457,28.346457 0 0 0 -28.3457,28.3457 v 146.42383 a 28.346457,28.346457 0 0 0 28.3457,28.3457 28.346457,28.346457 0 0 0 28.34766,-28.3457 V 449.56836 a 28.346457,28.346457 0 0 0 -28.34766,-28.3457 z"
         style="opacity:1;fill:#5dcd11;fill-opacity:1;stroke:none;stroke-width:4.88027143;stroke-linecap:square;stroke-linejoin:miter;stroke-miterlimit:4;stroke-dasharray:none;stroke-dashoffset:0;stroke-opacity:1;paint-order:markers stroke fill"
         inkscape:connector-curvature="0" />
      <path
         id="circle870"
         transform="scale(0.26458333)"
         d="m -438.60547,345.14453 a 28.346457,28.346457 0 0 0 -28.3457,28.34766 v 222.5 a 28.346457,28.346457 0 0 0 28.3457,28.3457 28.346457,28.346457 0 0 0 28.3457,-28.3457 v -33.09571 l 17.73243,-16.94336 49.28711,66.85743 a 28.346457,28.346457 0 0 1 0,0.002 28.346457,28.346457 0 0 0 39.63671,5.99609 28.346457,28.346457 0 0 0 5.9961,-39.63671 l -53.5957,-72.70313 37.14843,-35.49609 a 28.346457,28.346457 0 0 0 0.91211,-40.07813 28.346457,28.346457 0 0 0 -40.07812,-0.91015 l -57.03907,54.5 V 373.49219 a 28.346457,28.346457 0 0 0 -28.3457,-28.34766 z"
         style="opacity:1;fill:#5dcd11;fill-opacity:1;stroke:none;stroke-width:4.88027143;stroke-linecap:square;stroke-linejoin:miter;stroke-miterlimit:4;stroke-dasharray:none;stroke-dashoffset:0;stroke-opacity:1;paint-order:markers stroke fill"
         inkscape:connector-curvature="0" />
    </g>
  </g>
</svg>
