<?xml version="1.0" standalone="no"?>
<!DOCTYPE svg PUBLIC "-//W3C//DTD SVG 20010904//EN"
 "http://www.w3.org/TR/2001/REC-SVG-20010904/DTD/svg10.dtd">
<svg version="1.0" xmlns="http://www.w3.org/2000/svg"
 width="150.000000pt" height="68.000000pt" viewBox="0 0 150.000000 68.000000"
 preserveAspectRatio="xMidYMid meet">

<g transform="translate(0.000000,68.000000) scale(0.100000,-0.100000)"
fill="#000000" stroke="none">
<path d="M1290 490 c0 -64 3 -80 15 -80 12 0 15 16 15 80 0 64 -3 80 -15 80
-12 0 -15 -16 -15 -80z"/>
<path d="M1340 555 c0 -8 9 -15 20 -15 16 0 19 -8 22 -62 2 -48 7 -63 18 -63
11 0 16 15 18 63 3 54 6 62 22 62 11 0 20 7 20 15 0 12 -13 15 -60 15 -47 0
-60 -3 -60 -15z"/>
<path d="M483 460 c-105 -47 -114 -197 -17 -261 40 -26 119 -25 162 1 45 28
76 97 67 151 -9 52 -56 106 -103 119 -50 13 -60 13 -109 -10z m127 -75 c55
-55 14 -145 -66 -145 -69 0 -109 80 -68 138 33 47 90 50 134 7z"/>
<path d="M528 373 c-22 -5 -35 -50 -21 -72 14 -22 57 -25 77 -6 21 22 20 41
-4 65 -20 20 -22 21 -52 13z"/>
<path d="M72 450 c-20 -19 -22 -30 -22 -145 0 -124 0 -125 24 -131 14 -3 30
-3 35 1 7 4 11 50 11 116 0 88 3 109 14 109 20 0 23 -5 45 -106 23 -102 41
-124 103 -124 28 0 46 7 63 25 24 23 25 30 25 150 l0 125 -35 0 -34 0 -3 -112
c-3 -96 -6 -113 -20 -116 -18 -3 -19 -1 -43 111 -11 50 -24 85 -38 97 -29 27
-96 27 -125 0z"/>
<path d="M700 460 c0 -6 18 -67 40 -135 43 -131 60 -155 111 -155 48 0 67 28
113 168 l45 132 -37 0 -37 0 -35 -112 c-33 -104 -54 -138 -64 -106 -3 7 -19
59 -37 116 l-32 102 -33 0 c-19 0 -34 -5 -34 -10z"/>
<path d="M1077 458 c-9 -7 -37 -73 -61 -145 l-45 -133 25 -6 c13 -3 30 -4 37
-1 7 2 28 55 46 116 21 68 39 111 47 111 8 0 26 -40 45 -102 18 -57 39 -109
47 -115 17 -14 62 -18 62 -6 0 27 -86 259 -101 274 -22 22 -77 25 -102 7z"/>
</g>
</svg>
